<?xml version="1.0" standalone="no"?><!DOCTYPE svg PUBLIC "-//W3C//DTD SVG 1.1//EN" "http://www.w3.org/Graphics/SVG/1.1/DTD/svg11.dtd"><svg width="200" height="200" viewBox="0 0 200 200" version="1.1" xmlns="http://www.w3.org/2000/svg" xmlns:xlink="http://www.w3.org/1999/xlink"><defs><style type="text/css"><![CDATA[
@font-face { font-family: ifont; src: url("//at.alicdn.com/t/font_1442373896_4754455.eot?#iefix") format("embedded-opentype"), url("//at.alicdn.com/t/font_1442373896_4754455.woff") format("woff"), url("//at.alicdn.com/t/font_1442373896_4754455.ttf") format("truetype"), url("//at.alicdn.com/t/font_1442373896_4754455.svg#ifont") format("svg"); }

]]></style></defs><g class="transform-group"><g transform="scale(0.1953125, 0.1953125)"><path d="M512.020591 102.4c-226.214899 0-409.620952 183.374625-409.620952 409.58266 0 226.277756 183.406053 409.615895 409.620952 409.615895 226.155294 0 409.577964-183.338139 409.577964-409.615895C921.598555 285.774263 738.175885 102.4 512.020591 102.4L512.020591 102.4zM512.014089 879.589142c-202.744883 0-367.604675-164.851844-367.604675-367.618041 0-202.620616 164.860153-367.561687 367.604675-367.561687 202.685278 0 367.575053 164.941071 367.575053 367.561687C879.589142 714.737297 714.699367 879.589142 512.014089 879.589142L512.014089 879.589142zM478.911143 276.169511l-103.44544 242.028351 89.328751 0-63.453573 242.043162 258.586326-295.837435-94.822187 0 120.66413-188.234078L478.911143 276.169511 478.911143 276.169511zM478.911143 276.169511" fill="#FFFFFF"></path></g></g></svg>