<?xml version="1.0" standalone="no"?><!DOCTYPE svg PUBLIC "-//W3C//DTD SVG 1.1//EN" "http://www.w3.org/Graphics/SVG/1.1/DTD/svg11.dtd"><svg width="200" height="200" viewBox="0 0 200 200" version="1.1" xmlns="http://www.w3.org/2000/svg" xmlns:xlink="http://www.w3.org/1999/xlink"><defs><style type="text/css"><![CDATA[
@font-face { font-family: ifont; src: url("//at.alicdn.com/t/font_1442373896_4754455.eot?#iefix") format("embedded-opentype"), url("//at.alicdn.com/t/font_1442373896_4754455.woff") format("woff"), url("//at.alicdn.com/t/font_1442373896_4754455.ttf") format("truetype"), url("//at.alicdn.com/t/font_1442373896_4754455.svg#ifont") format("svg"); }

]]></style></defs><g class="transform-group"><g transform="scale(0.1953125, 0.1953125)"><path d="M873.939171 150.060829C777.201843 53.323502 648.847926 0 512 0S246.798157 53.323502 150.060829 150.060829 0 375.152074 0 512s53.323502 265.201843 150.060829 361.939171S375.152074 1024 512 1024s265.201843-53.323502 361.939171-150.060829 150.060829-225.091244 150.060829-361.939171-53.323502-265.201843-150.060829-361.939171z m-361.939171 801.268203c-242.079263 0-439.329032-197.24977-439.329032-439.329032s197.24977-439.329032 439.329032-439.329032 439.329032 197.24977 439.329032 439.329032-197.24977 439.329032-439.329032 439.329032zM751.247926 291.62765c-19.819355-9.437788-43.885714-0.943779-53.323502 18.875576L512 703.115207 326.075576 310.503226c-9.437788-19.819355-33.032258-28.313364-53.323502-18.875576-19.819355 9.437788-28.313364 33.032258-18.875576 53.323502l221.316129 467.642396c7.078341 14.628571 21.235023 23.122581 36.807373 22.650692 15.100461 0 29.729032-8.494009 36.807373-22.650692l221.316129-467.642396c9.437788-19.819355 0.943779-43.885714-18.875576-53.323502z" fill="#FFFFFF"></path></g></g></svg>