<?xml version="1.0" standalone="no"?><!DOCTYPE svg PUBLIC "-//W3C//DTD SVG 1.1//EN" "http://www.w3.org/Graphics/SVG/1.1/DTD/svg11.dtd"><svg width="200" height="200" viewBox="0 0 200 200" version="1.1" xmlns="http://www.w3.org/2000/svg" xmlns:xlink="http://www.w3.org/1999/xlink"><defs><style type="text/css"><![CDATA[
@font-face { font-family: ifont; src: url("//at.alicdn.com/t/font_1442373896_4754455.eot?#iefix") format("embedded-opentype"), url("//at.alicdn.com/t/font_1442373896_4754455.woff") format("woff"), url("//at.alicdn.com/t/font_1442373896_4754455.ttf") format("truetype"), url("//at.alicdn.com/t/font_1442373896_4754455.svg#ifont") format("svg"); }

]]></style></defs><g class="transform-group"><g transform="scale(0.1953125, 0.1953125)"><path d="M 505.994 19.6923 c -271.892 0 -492.308 220.416 -492.308 492.308 s 220.416 492.308 492.308 492.308 s 492.308 -220.416 492.308 -492.308 S 777.886 19.6923 505.994 19.6923 Z M 897.083 571.077 l -42.7126 0 l -76.032 0 c -14.7889 0 -28.0418 -5.02154 -33.8117 -18.4911 c -0.295385 -0.708923 -0.590769 0.492308 -0.866462 -0.256 l -33.7329 -94.2474 l -80.6991 228.903 c -4.92308 13.9225 -17.664 23.7883 -32.3742 24.6942 c -0.768 0.059077 -1.536 0.196923 -2.304 0.196923 c -13.8437 0 -26.624 -7.75877 -32.8862 -20.2634 l -82.5108 -165.002 l -19.2 29.7748 C 453.376 567.847 441.186 571.077 427.993 571.077 l -68.0369 0 l -70.6166 0 l -70.5772 0 L 114.885 571.077 c -20.3225 0 -36.7852 -19.0622 -36.7852 -39.4043 c 0 -20.2831 16.4628 -39.3649 36.7852 -39.3649 l 103.956 0 l 70.5772 0 l 70.6363 0 l 46.592 0 l 42.7126 -67.4855 C 455.956 413.263 468.283 413.538 481.477 413.538 c 0.275692 0 0.551385 0 0.827077 0 c 13.568 0 25.8166 7.38461 31.8818 19.5348 l 74.5354 148.618 l 86.4886 -243.417 C 680.389 323.584 694.292 315.077 709.868 315.077 l 0.019692 0 c 15.5766 0 29.4597 1.83139 34.6585 16.5022 L 804.332 492.308 l 92.7508 0 c 20.2831 0 36.7852 19.0818 36.7852 39.3649 C 933.868 552.015 917.366 571.077 897.083 571.077 Z" fill="#FFFFFF"></path></g></g></svg>