<?xml version="1.0" standalone="no"?><!DOCTYPE svg PUBLIC "-//W3C//DTD SVG 1.1//EN" "http://www.w3.org/Graphics/SVG/1.1/DTD/svg11.dtd"><svg width="200" height="200" viewBox="0 0 200 200" version="1.1" xmlns="http://www.w3.org/2000/svg" xmlns:xlink="http://www.w3.org/1999/xlink"><defs><style type="text/css"><![CDATA[
@font-face { font-family: ifont; src: url("//at.alicdn.com/t/font_1442373896_4754455.eot?#iefix") format("embedded-opentype"), url("//at.alicdn.com/t/font_1442373896_4754455.woff") format("woff"), url("//at.alicdn.com/t/font_1442373896_4754455.ttf") format("truetype"), url("//at.alicdn.com/t/font_1442373896_4754455.svg#ifont") format("svg"); }

]]></style></defs><g class="transform-group"><g transform="scale(0.1953125, 0.1953125)"><path d="M1024.508-150.803h-1024.999c-83.012 0-150.313 67.122-150.313 149.908v1025.807c0 82.786 67.3 149.908 150.313 149.908h1024.999c83.012 0 150.313-67.122 150.313-149.908v-1025.809c-0.017-82.786-67.3-149.908-150.313-149.908zM1064.589 1024.895c0 22.039-17.979 39.969-40.082 39.969h-1024.999c-22.103 0-40.083-17.93-40.083-39.969v-1025.809c0-22.039 17.979-39.969 40.083-39.969h1025.001c22.103 0 40.082 17.93 40.082 26.164v1039.613zM1008.747 541.856c-37.218 0-87.040 0.954-87.040 0.954-9.159-0.598-17.719 1.909-25.567 7.378-7.849 5.584-13.431 10.939-16.651 16.294-2.622 5.227-7.249 15.341-13.674 30.439-6.667 14.985-12.492 30.439-17.719 46.134-2.622 7.849-6.894 13.074-12.849 15.584-5.825 2.734-12.007 3.804-18.189 3.447-6.181-0.356-12.137-2.023-17.719-5.227-5.584-3.333-9.273-7.249-11.295-11.894-1.909-4.513-5.227-12.492-9.759-24.014-4.513-11.41-9.159-23.075-13.674-34.839-5.938-13.674-11.894-28.415-17.719-44.112-17.12 54.338-32.461 104.404-46.262 150.295-5.825 19.612-11.763 38.885-17.719 58.028-22.833 73.482-29.371 127.948-71.702 129.728-51.961 0-61.117-84.549-63.967-113.078-2.622-26.164-5.357-55.406-8.317-87.398-2.977-32.105-5.938-64.809-9.273-98.223-7.249-77.883-15.696-165.054-25.567-261.237-18.317 53.739-34.726 101.783-49.113 144.356-5.825 18.431-12.007 36.393-18.189 54.112-6.181 17.719-11.763 33.771-16.764 48.157-4.87 14.385-9.029 26.522-12.25 36.391l-5.938 17.719c-3.333 8.447-7.734 16.294-13.318 23.546s-14.272 10.468-26.037 9.87c-11.763 0-20.698-4.045-26.523-12.363-5.938-8.204-10.468-17.476-13.787-27.945-2.023-5.227-5.584-15.341-10.827-30.439-5.227-15.099-10.827-30.439-16.764-46.134-7.249-18.317-14.741-38.642-22.59-60.876-4.643 5.938-9.516 11.763-14.741 17.719-4.516 5.227-9.516 10.939-14.741 17.25-5.227 6.181-10.468 12.251-15.696 18.076-10.468 12.363-20.339 21.053-29.484 25.567s-19.985 6.181-32.461 4.871c-6.538-0.598-15.226-0.826-26.037-0.356-10.827 0.356-21.765 0.356-32.946 0.356-12.492 0.713-75.86 1.069-90.973 1.069v-76.572h103.806c14.385 0 26.036-1.31 34.838-3.916 8.803-2.622 17.476-7.606 26.037-14.741l15.696-15.696c6.538-6.538 13.431-14.029 20.698-22.59 7.249-8.447 14.628-17.25 22.119-26.037 7.493-8.803 14.628-17.25 21.166-25.098 13.074-16.407 24.854-22.719 35.438-19.145 10.468 3.561 18.317 11.295 23.658 23.075l43.286 118.903c22.363-62.188 41.977-118.547 58.983-168.971 7.249-21.634 14.386-42.801 21.634-63.383-4.158 11.763 33.172-122.835 69.808-122.835 53.158 0 55.536 56.959 63.853 95.844 5.357 25.211 6.667 53.869 10.339 85.019 3.69 31.037 7.378 62.673 11.295 94.777 8.56 75.278 18.43 159.455 29.484 252.451 14.385-47.202 27.459-90.132 39.355-128.662 4.513-16.407 9.402-32.575 14.272-48.642 4.871-16.053 9.516-30.795 13.787-44.112 4.289-13.431 7.734-24.725 10.339-33.884 2.622-9.159 4.643-15.099 5.938-17.606 3.204-10.468 7.249-18.317 11.763-23.658 4.513-5.227 10.825-8.803 18.674-10.827 15.099-3.916 26.393-1.909 34.014 6.423 7.493 8.204 11.295 16.522 11.295 24.97 0 7.249-0.598 13.431-2.023 18.674-0.713 2.622-0.954 4.87-0.954 6.894l35.309 96.201c0.713-0.598 1.668-2.023 2.977-3.804 2.023-3.333 5.227-10.227 9.759-20.698 5.357-11.181 14.029-18.431 26.164-22.119 16.878-5.002 53.741-3.447 56.491-3.447h94.89v74.080h-0.356z" fill="#FFFFFF"></path></g></g></svg>