<?xml version="1.0" standalone="no"?><!DOCTYPE svg PUBLIC "-//W3C//DTD SVG 1.1//EN" "http://www.w3.org/Graphics/SVG/1.1/DTD/svg11.dtd"><svg width="200" height="200" viewBox="0 0 200 200" version="1.1" xmlns="http://www.w3.org/2000/svg" xmlns:xlink="http://www.w3.org/1999/xlink"><defs><style type="text/css"><![CDATA[
@font-face { font-family: ifont; src: url("//at.alicdn.com/t/font_1442373896_4754455.eot?#iefix") format("embedded-opentype"), url("//at.alicdn.com/t/font_1442373896_4754455.woff") format("woff"), url("//at.alicdn.com/t/font_1442373896_4754455.ttf") format("truetype"), url("//at.alicdn.com/t/font_1442373896_4754455.svg#ifont") format("svg"); }

]]></style></defs><g class="transform-group"><g transform="scale(0.1953125, 0.1953125)"><path d="M853.333333 540.444444C853.333333 351.93125 700.513195 199.111111 512 199.111111 323.486805 199.111111 170.666667 351.93125 170.666667 540.444444 170.666667 556.153876 183.401678 568.888889 199.111111 568.888889 214.820544 568.888889 227.555556 556.153876 227.555556 540.444444 227.555556 383.350116 354.905671 256 512 256 669.094329 256 796.444444 383.350116 796.444444 540.444444 796.444444 556.153876 809.179457 568.888889 824.888889 568.888889 840.59832 568.888889 853.333333 556.153876 853.333333 540.444444L853.333333 540.444444ZM468.106914 552.723334 345.622511 447.736701C333.695019 437.513136 315.738041 438.894444 305.514479 450.821934 295.290916 462.749426 296.672221 480.706404 308.599712 490.929966L432.253625 596.919034C429.170227 605.691011 427.493228 615.125271 427.493228 624.951216 427.493228 671.623017 465.328199 709.457988 512 709.457988 558.671801 709.457988 596.506772 671.623017 596.506772 624.951216 596.506772 578.279415 558.671801 540.444444 512 540.444444 495.925899 540.444444 480.899991 544.932287 468.106914 552.723334ZM794.08609 933.237658C919.602836 842.947388 995.555556 698.031374 995.555556 540.444444 995.555556 273.384085 779.060358 56.888889 512 56.888889 244.939641 56.888889 28.444444 273.384085 28.444444 540.444444 28.444444 694.903319 101.394781 837.280043 222.771277 928.000003 235.354353 937.404919 253.179144 934.828516 262.584063 922.245441 271.988981 909.662364 269.412576 891.837574 256.829501 882.432654 149.672493 802.340713 85.333333 676.770369 85.333333 540.444444 85.333333 304.802951 276.358507 113.777778 512 113.777778 747.641492 113.777778 938.666667 304.802951 938.666667 540.444444 938.666667 679.528957 871.67672 807.344208 760.865465 887.056105 748.112779 896.229726 745.211378 914.004511 754.385001 926.757194 763.558622 939.509877 781.333404 942.411278 794.08609 933.237658L794.08609 933.237658Z" fill="#FFFFFF"></path></g></g></svg>